G04*
G04 #@! TF.GenerationSoftware,Altium Limited,Altium Designer,21.2.1 (34)*
G04*
G04 Layer_Color=16711935*
%FSTAX24Y24*%
%MOIN*%
G70*
G04*
G04 #@! TF.SameCoordinates,9334BE2B-5F1B-4A57-B983-AC11F37A1BB9*
G04*
G04*
G04 #@! TF.FilePolarity,Negative*
G04*
G01*
G75*
%ADD44R,0.0529X0.0552*%
%ADD56C,0.0671*%
%ADD57R,0.0671X0.0671*%
%ADD58O,0.1655X0.2442*%
%ADD59C,0.0780*%
%ADD60C,0.0946*%
%ADD61R,0.0946X0.0946*%
%ADD62O,0.1080X0.0730*%
%ADD63R,0.1080X0.0730*%
%ADD64R,0.0702X0.0671*%
%ADD65O,0.0789X0.0671*%
%ADD66O,0.0631X0.1064*%
G04:AMPARAMS|DCode=67|XSize=106.4mil|YSize=63.1mil|CornerRadius=17.8mil|HoleSize=0mil|Usage=FLASHONLY|Rotation=90.000|XOffset=0mil|YOffset=0mil|HoleType=Round|Shape=RoundedRectangle|*
%AMROUNDEDRECTD67*
21,1,0.1064,0.0276,0,0,90.0*
21,1,0.0709,0.0631,0,0,90.0*
1,1,0.0356,0.0138,0.0354*
1,1,0.0356,0.0138,-0.0354*
1,1,0.0356,-0.0138,-0.0354*
1,1,0.0356,-0.0138,0.0354*
%
%ADD67ROUNDEDRECTD67*%
%ADD68C,0.0678*%
%ADD69O,0.0789X0.0631*%
%ADD70C,0.0592*%
%ADD71C,0.0277*%
D44*
X014464Y03143D02*
D03*
X015216D02*
D03*
X014464Y03473D02*
D03*
X015216D02*
D03*
X014464Y03793D02*
D03*
X015216D02*
D03*
X014464Y04123D02*
D03*
X015216D02*
D03*
D56*
X03464Y03598D02*
D03*
X03734Y02607D02*
D03*
D57*
X03464Y03748D02*
D03*
X03734Y02457D02*
D03*
D58*
X0176Y02203D02*
D03*
X02151D02*
D03*
X02542D02*
D03*
X02933D02*
D03*
X03307D02*
D03*
X03715D02*
D03*
D59*
X03307Y02627D02*
D03*
Y02427D02*
D03*
X03886Y03244D02*
D03*
Y03444D02*
D03*
D60*
X03201Y035D02*
D03*
D61*
Y037D02*
D03*
D62*
X01484Y03613D02*
D03*
X01479Y03943D02*
D03*
X01489Y03293D02*
D03*
X014892Y029597D02*
D03*
D63*
X01484Y03713D02*
D03*
X01479Y04043D02*
D03*
X01489Y03393D02*
D03*
X014892Y030597D02*
D03*
D64*
X04062Y03685D02*
D03*
X03928Y02957D02*
D03*
D65*
X04062Y03585D02*
D03*
X03928Y03057D02*
D03*
D66*
X0336Y034304D02*
D03*
X0376D02*
D03*
X0336Y0308D02*
D03*
X0346D02*
D03*
X0366D02*
D03*
D67*
X0376D02*
D03*
D68*
X02699Y04279D02*
D03*
X02799D02*
D03*
X02899D02*
D03*
X02999D02*
D03*
X03199D02*
D03*
X03099D02*
D03*
D69*
X029494Y02568D02*
D03*
X026504Y02468D02*
D03*
X020594Y02568D02*
D03*
X017604Y02468D02*
D03*
X022054D02*
D03*
X025044Y02568D02*
D03*
D70*
X026504Y03068D02*
D03*
X029496D02*
D03*
X017604Y03068D02*
D03*
X020596D02*
D03*
X025046D02*
D03*
X022054D02*
D03*
D71*
X04806Y03238D02*
D03*
X04722Y03241D02*
D03*
X04638Y0324D02*
D03*
X04582D02*
D03*
X04535Y03241D02*
D03*
X041486Y033435D02*
D03*
X031985Y041645D02*
D03*
X034263Y027007D02*
D03*
M02*
