M48
;Layer_Color=9474304
;FILE_FORMAT=2:4
INCH,LZ
;TYPE=PLATED
T1F00S00C0.0118
T2F00S00C0.0197
T3F00S00C0.0236
T4F00S00C0.0310
T5F00S00C0.0315
T6F00S00C0.0320
T7F00S00C0.0354
T8F00S00C0.0402
T9F00S00C0.0433
T10F00S00C0.0984
;TYPE=NON_PLATED
T11F00S00C0.1181
%
T01
X034263Y027007
X0155Y04125
X01874Y03989
X01865Y03753
X017132Y034629
X031985Y041645
X04149Y0346
X041486Y033435
X04535Y03241
X04582Y0324
X04638
X04722Y03241
X04806Y03238
X04721Y03687
T02
X02913Y03463
T03
X03928Y02957
X03928Y03057
X029496Y03068
X026504
X025046Y03068
X022054
X020596
X017604
X04062Y03585
Y03685
T04
X03307Y02427
Y02627
X03886Y03244
Y03444
T05
X03734Y02457
Y02607
X0376Y0308
X0366
X0346
X0336
Y034304
X03464Y03598
Y03748
X0376Y034304
T06
X014892Y029597
Y030597
X01489Y03293
Y03393
X01484Y03613
Y03713
X01479Y03943
Y04043
T07
X017604Y02468
X020594Y02568
X022054Y02468
X025044Y02568
X026504Y02468
X029494Y02568
T08
X02699Y04279
X02799
X02899
X02999
X03099
X03199
T09
X03201Y035
Y037
T10
X03307Y02203
X03715
X02933
X02542
X02151
X0176
T11
X049549Y021204
X013681Y021214
Y042876
X049549
M30
