G04*
G04 #@! TF.GenerationSoftware,Altium Limited,Altium Designer,21.2.1 (34)*
G04*
G04 Layer_Color=255*
%FSTAX24Y24*%
%MOIN*%
G70*
G04*
G04 #@! TF.SameCoordinates,9334BE2B-5F1B-4A57-B983-AC11F37A1BB9*
G04*
G04*
G04 #@! TF.FilePolarity,Positive*
G04*
G01*
G75*
%ADD26R,0.0449X0.0472*%
%ADD76C,0.0591*%
%ADD77R,0.0591X0.0591*%
%ADD78O,0.1575X0.2362*%
%ADD79C,0.0700*%
%ADD80C,0.0866*%
%ADD81R,0.0866X0.0866*%
%ADD82O,0.1000X0.0650*%
%ADD83R,0.1000X0.0650*%
%ADD84R,0.0622X0.0591*%
%ADD85O,0.0709X0.0591*%
%ADD86O,0.0551X0.0984*%
G04:AMPARAMS|DCode=87|XSize=98.4mil|YSize=55.1mil|CornerRadius=13.8mil|HoleSize=0mil|Usage=FLASHONLY|Rotation=90.000|XOffset=0mil|YOffset=0mil|HoleType=Round|Shape=RoundedRectangle|*
%AMROUNDEDRECTD87*
21,1,0.0984,0.0276,0,0,90.0*
21,1,0.0709,0.0551,0,0,90.0*
1,1,0.0276,0.0138,0.0354*
1,1,0.0276,0.0138,-0.0354*
1,1,0.0276,-0.0138,-0.0354*
1,1,0.0276,-0.0138,0.0354*
%
%ADD87ROUNDEDRECTD87*%
%ADD88C,0.0598*%
%ADD89O,0.0709X0.0551*%
%ADD90C,0.0512*%
%ADD91C,0.0197*%
D26*
X014464Y03143D02*
D03*
X015216D02*
D03*
X014464Y03473D02*
D03*
X015216D02*
D03*
X014464Y03793D02*
D03*
X015216D02*
D03*
X014464Y04123D02*
D03*
X015216D02*
D03*
D76*
X03464Y03598D02*
D03*
X03734Y02607D02*
D03*
D77*
X03464Y03748D02*
D03*
X03734Y02457D02*
D03*
D78*
X0176Y02203D02*
D03*
X02151D02*
D03*
X02542D02*
D03*
X02933D02*
D03*
X03307D02*
D03*
X03715D02*
D03*
D79*
X03307Y02627D02*
D03*
Y02427D02*
D03*
X03886Y03244D02*
D03*
Y03444D02*
D03*
D80*
X03201Y035D02*
D03*
D81*
Y037D02*
D03*
D82*
X01484Y03613D02*
D03*
X01479Y03943D02*
D03*
X01489Y03293D02*
D03*
X014892Y029597D02*
D03*
D83*
X01484Y03713D02*
D03*
X01479Y04043D02*
D03*
X01489Y03393D02*
D03*
X014892Y030597D02*
D03*
D84*
X04062Y03685D02*
D03*
X03928Y02957D02*
D03*
D85*
X04062Y03585D02*
D03*
X03928Y03057D02*
D03*
D86*
X0336Y034304D02*
D03*
X0376D02*
D03*
X0336Y0308D02*
D03*
X0346D02*
D03*
X0366D02*
D03*
D87*
X0376D02*
D03*
D88*
X02699Y04279D02*
D03*
X02799D02*
D03*
X02899D02*
D03*
X02999D02*
D03*
X03199D02*
D03*
X03099D02*
D03*
D89*
X029494Y02568D02*
D03*
X026504Y02468D02*
D03*
X020594Y02568D02*
D03*
X017604Y02468D02*
D03*
X022054D02*
D03*
X025044Y02568D02*
D03*
D90*
X026504Y03068D02*
D03*
X029496D02*
D03*
X017604Y03068D02*
D03*
X020596D02*
D03*
X025046D02*
D03*
X022054D02*
D03*
D91*
X049549Y021204D02*
D03*
X049549Y042876D02*
D03*
X013681Y021214D02*
D03*
Y042876D02*
D03*
M02*
