G04*
G04 #@! TF.GenerationSoftware,Altium Limited,Altium Designer,21.2.1 (34)*
G04*
G04 Layer_Physical_Order=1*
G04 Layer_Color=255*
%FSTAX24Y24*%
%MOIN*%
G70*
G04*
G04 #@! TF.SameCoordinates,9334BE2B-5F1B-4A57-B983-AC11F37A1BB9*
G04*
G04*
G04 #@! TF.FilePolarity,Positive*
G04*
G01*
G75*
%ADD14C,0.0100*%
%ADD19C,0.0197*%
G04:AMPARAMS|DCode=20|XSize=39.4mil|YSize=78.7mil|CornerRadius=9.8mil|HoleSize=0mil|Usage=FLASHONLY|Rotation=90.000|XOffset=0mil|YOffset=0mil|HoleType=Round|Shape=RoundedRectangle|*
%AMROUNDEDRECTD20*
21,1,0.0394,0.0591,0,0,90.0*
21,1,0.0197,0.0787,0,0,90.0*
1,1,0.0197,0.0295,0.0098*
1,1,0.0197,0.0295,-0.0098*
1,1,0.0197,-0.0295,-0.0098*
1,1,0.0197,-0.0295,0.0098*
%
%ADD20ROUNDEDRECTD20*%
%ADD21R,0.0630X0.0598*%
%ADD22R,0.0394X0.0472*%
%ADD23O,0.0591X0.0236*%
%ADD24R,0.0472X0.0394*%
%ADD25R,0.0600X0.0500*%
%ADD26R,0.0449X0.0472*%
%ADD27R,0.0472X0.0449*%
%ADD28R,0.0500X0.0650*%
%ADD29R,0.0315X0.0394*%
%ADD30R,0.0374X0.0354*%
%ADD31R,0.0512X0.0453*%
%ADD32R,0.0598X0.0630*%
%ADD33R,0.0945X0.0394*%
%ADD34R,0.1772X0.1575*%
%ADD35R,0.0650X0.0500*%
%ADD36R,0.0358X0.0480*%
%ADD37R,0.0354X0.0374*%
%ADD72C,0.0150*%
%ADD73C,0.0394*%
%ADD74C,0.0591*%
%ADD75C,0.0200*%
%ADD76C,0.0591*%
%ADD77R,0.0591X0.0591*%
%ADD78O,0.1575X0.2362*%
%ADD79C,0.0700*%
%ADD80C,0.0866*%
%ADD81R,0.0866X0.0866*%
%ADD82O,0.1000X0.0650*%
%ADD83R,0.1000X0.0650*%
%ADD84R,0.0622X0.0591*%
%ADD85O,0.0709X0.0591*%
%ADD86O,0.0551X0.0984*%
G04:AMPARAMS|DCode=87|XSize=98.4mil|YSize=55.1mil|CornerRadius=13.8mil|HoleSize=0mil|Usage=FLASHONLY|Rotation=90.000|XOffset=0mil|YOffset=0mil|HoleType=Round|Shape=RoundedRectangle|*
%AMROUNDEDRECTD87*
21,1,0.0984,0.0276,0,0,90.0*
21,1,0.0709,0.0551,0,0,90.0*
1,1,0.0276,0.0138,0.0354*
1,1,0.0276,0.0138,-0.0354*
1,1,0.0276,-0.0138,-0.0354*
1,1,0.0276,-0.0138,0.0354*
%
%ADD87ROUNDEDRECTD87*%
%ADD88C,0.0598*%
%ADD89O,0.0709X0.0551*%
%ADD90C,0.0512*%
%ADD91C,0.0197*%
%ADD92C,0.0394*%
G36*
X050577Y04273D02*
X050577Y02712D01*
X04374D01*
X0437Y02716D01*
Y032204D01*
X042564Y03334D01*
X042536D01*
Y03384D01*
X042536D01*
Y03388D01*
X042536D01*
Y034528D01*
X042116D01*
X042098Y034546D01*
X042085Y034555D01*
X042073Y034623D01*
X04208Y034632D01*
X042536D01*
Y03528D01*
X042536D01*
Y035873D01*
X041824D01*
Y035221D01*
X041864D01*
Y034648D01*
X041864Y034632D01*
X041828Y034598D01*
X04176D01*
Y034756D01*
X041614D01*
X041602Y034768D01*
X041529Y034798D01*
X041451D01*
X041378Y034768D01*
X041366Y034756D01*
X041112D01*
Y034116D01*
X041062D01*
Y033805D01*
X041436D01*
Y033655D01*
X041062D01*
Y033344D01*
X041013Y03334D01*
X040956D01*
Y033394D01*
X041008D01*
Y034066D01*
X041008D01*
X041008Y034084D01*
X041008D01*
Y034756D01*
X04036D01*
Y034266D01*
X040345Y034222D01*
X039515D01*
Y033424D01*
X040296D01*
X040322Y033378D01*
X040307Y033341D01*
X040306Y03334D01*
X03214Y03334D01*
X03093Y03213D01*
X03103Y03203D01*
Y02994D01*
X02967Y02858D01*
X012653D01*
X012653Y043707D01*
X018737D01*
Y04036D01*
X018749Y040301D01*
X018782Y040252D01*
X018831Y040219D01*
X01889Y040207D01*
X018983D01*
X018998Y040157D01*
X018962Y040133D01*
X018918Y040067D01*
X018914Y040049D01*
X018866Y040044D01*
X018852Y040058D01*
X018779Y040088D01*
X018701D01*
X018628Y040058D01*
X018624Y040055D01*
X018574Y04007D01*
Y040216D01*
X017926D01*
Y039544D01*
X018574D01*
Y039706D01*
X018624Y039725D01*
X018628Y039722D01*
X018701Y039692D01*
X018779D01*
X018852Y039722D01*
X018865Y039735D01*
X018915Y039729D01*
X018918Y039716D01*
X018962Y03965D01*
X019027Y039606D01*
X019105Y039591D01*
X019695D01*
X019773Y039606D01*
X019838Y03965D01*
X019882Y039716D01*
X019898Y039793D01*
Y03999D01*
X019882Y040067D01*
X019838Y040133D01*
X019802Y040157D01*
X019817Y040207D01*
X024923D01*
X024938Y040157D01*
X024902Y040133D01*
X024858Y040067D01*
X024842Y03999D01*
Y039793D01*
X024858Y039716D01*
X024902Y03965D01*
X024967Y039606D01*
X025045Y039591D01*
X025635D01*
X025713Y039606D01*
X025778Y03965D01*
X025822Y039716D01*
X025827Y039738D01*
X026831D01*
X02689Y03975D01*
X026939Y039783D01*
X027411Y040255D01*
X027457Y040236D01*
Y039863D01*
X026851Y039257D01*
X025827D01*
X025822Y03928D01*
X025778Y039346D01*
X025713Y03939D01*
X025635Y039405D01*
X025045D01*
X024967Y03939D01*
X024902Y039346D01*
X024858Y03928D01*
X024842Y039203D01*
Y039006D01*
X024858Y038928D01*
X024902Y038863D01*
X024967Y038819D01*
X025045Y038804D01*
X025635D01*
X025713Y038819D01*
X025778Y038863D01*
X025822Y038928D01*
X025827Y038951D01*
X026914D01*
X026973Y038963D01*
X027022Y038996D01*
X027718Y039692D01*
X027751Y039741D01*
X027763Y0398D01*
Y042347D01*
X027835Y042419D01*
X027836Y042418D01*
X027937Y042391D01*
X028043D01*
X028144Y042418D01*
X028235Y042471D01*
X028309Y042545D01*
X028362Y042636D01*
X028389Y042737D01*
Y042843D01*
X028362Y042944D01*
X028309Y043035D01*
X028235Y043109D01*
X028144Y043162D01*
X028043Y043189D01*
X027937D01*
X027836Y043162D01*
X027745Y043109D01*
X027671Y043035D01*
X027618Y042944D01*
X027591Y042843D01*
Y042737D01*
X027618Y042636D01*
X027619Y042635D01*
X027522Y042538D01*
X027477Y04253D01*
X027456Y04254D01*
X027361Y042635D01*
X027362Y042636D01*
X027389Y042737D01*
Y042843D01*
X027362Y042944D01*
X027309Y043035D01*
X027235Y043109D01*
X027144Y043162D01*
X027043Y043189D01*
X026937D01*
X026836Y043162D01*
X026745Y043109D01*
X026671Y043035D01*
X026618Y042944D01*
X026591Y042843D01*
Y042737D01*
X026618Y042636D01*
X026671Y042545D01*
X026745Y042471D01*
X026836Y042418D01*
X026937Y042391D01*
X027043D01*
X027144Y042418D01*
X027145Y042419D01*
X027207Y042357D01*
Y040484D01*
X026768Y040044D01*
X025827D01*
X025822Y040067D01*
X025778Y040133D01*
X025742Y040157D01*
X025757Y040207D01*
X02583D01*
X025889Y040219D01*
X025938Y040252D01*
X025971Y040301D01*
X025983Y04036D01*
Y043707D01*
X050577D01*
Y04273D01*
D02*
G37*
%LPC*%
G36*
X049624Y043616D02*
Y042951D01*
X050289D01*
X050261Y043092D01*
X050205Y043227D01*
X050124Y043348D01*
X050021Y043451D01*
X0499Y043532D01*
X049765Y043588D01*
X049624Y043616D01*
D02*
G37*
G36*
X049474D02*
X049333Y043588D01*
X049198Y043532D01*
X049077Y043451D01*
X048974Y043348D01*
X048893Y043227D01*
X048837Y043092D01*
X048809Y042951D01*
X049474D01*
Y043616D01*
D02*
G37*
G36*
X013756D02*
Y042951D01*
X014421D01*
X014393Y043092D01*
X014337Y043227D01*
X014256Y043348D01*
X014153Y043451D01*
X014032Y043532D01*
X013897Y043588D01*
X013756Y043616D01*
D02*
G37*
G36*
X013606D02*
X013465Y043588D01*
X01333Y043532D01*
X013209Y043451D01*
X013106Y043348D01*
X013025Y043227D01*
X012969Y043092D01*
X012941Y042951D01*
X013606D01*
Y043616D01*
D02*
G37*
G36*
X029065Y043235D02*
Y042865D01*
X029435D01*
X029409Y042963D01*
X029349Y043066D01*
X029266Y043149D01*
X029163Y043209D01*
X029065Y043235D01*
D02*
G37*
G36*
X028915D02*
X028817Y043209D01*
X028714Y043149D01*
X028631Y043066D01*
X028571Y042963D01*
X028545Y042865D01*
X028915D01*
Y043235D01*
D02*
G37*
G36*
X04845Y04263D02*
X04765D01*
Y042423D01*
X04515D01*
Y04263D01*
X04435D01*
Y042258D01*
X028869D01*
X028811Y042246D01*
X028761Y042213D01*
X028282Y041734D01*
X028249Y041684D01*
X028237Y041626D01*
Y038743D01*
X027964Y03847D01*
X025827D01*
X025822Y038493D01*
X025778Y038559D01*
X025713Y038602D01*
X025635Y038618D01*
X025045D01*
X024967Y038602D01*
X024902Y038559D01*
X024858Y038493D01*
X024842Y038416D01*
Y038219D01*
X024858Y038141D01*
X024902Y038076D01*
X024967Y038032D01*
X025045Y038016D01*
X025635D01*
X025713Y038032D01*
X025778Y038076D01*
X025822Y038141D01*
X025827Y038164D01*
X027958D01*
X027979Y038114D01*
X027547Y037683D01*
X025827D01*
X025822Y037706D01*
X025778Y037771D01*
X025713Y037815D01*
X025635Y037831D01*
X025045D01*
X024967Y037815D01*
X024902Y037771D01*
X024858Y037706D01*
X024842Y037628D01*
Y037432D01*
X024858Y037354D01*
X024902Y037289D01*
X024967Y037245D01*
X025045Y037229D01*
X025635D01*
X025713Y037245D01*
X025778Y037289D01*
X025822Y037354D01*
X025827Y037377D01*
X027611D01*
X027669Y037389D01*
X027719Y037422D01*
X028641Y038344D01*
X028687Y038325D01*
Y038093D01*
X02749Y036896D01*
X025827D01*
X025822Y036919D01*
X025778Y036984D01*
X025713Y037028D01*
X025635Y037044D01*
X025045D01*
X024967Y037028D01*
X024902Y036984D01*
X024858Y036919D01*
X024842Y036841D01*
Y036644D01*
X024858Y036567D01*
X024902Y036501D01*
X024967Y036458D01*
X025045Y036442D01*
X025635D01*
X025713Y036458D01*
X025778Y036501D01*
X025822Y036567D01*
X025827Y03659D01*
X027553D01*
X027611Y036602D01*
X027661Y036635D01*
X028948Y037922D01*
X028981Y037971D01*
X028993Y03803D01*
Y041277D01*
X029213Y041497D01*
X031852D01*
X031873Y041477D01*
X031946Y041447D01*
X032024D01*
X032097Y041477D01*
X032118Y041497D01*
X043167D01*
X043507Y041157D01*
Y03308D01*
X043518Y033022D01*
X043552Y032972D01*
X044817Y031707D01*
Y03007D01*
X04457D01*
Y02937D01*
X04537D01*
Y029567D01*
X04592D01*
X04592Y029567D01*
X04787D01*
Y02937D01*
X04867D01*
Y03007D01*
X04787D01*
Y029873D01*
X046183D01*
Y030104D01*
X046368D01*
Y030776D01*
X046364D01*
Y031426D01*
X045716D01*
Y030754D01*
X04572D01*
Y030104D01*
X045877D01*
Y029893D01*
X045857Y029873D01*
X04537D01*
Y03007D01*
X045123D01*
Y03177D01*
X045111Y031829D01*
X045078Y031878D01*
X043813Y033144D01*
Y036205D01*
X043859Y036221D01*
X043863Y036221D01*
X04442Y035664D01*
Y03513D01*
X04522D01*
Y035327D01*
X0457D01*
X0457Y035327D01*
X04772D01*
Y03513D01*
X04852D01*
Y03583D01*
X04772D01*
Y035633D01*
X046197D01*
X046183Y03565D01*
Y035884D01*
X046368D01*
Y036525D01*
X046368Y036556D01*
X046368Y036556D01*
X046364Y036574D01*
X046364D01*
Y037246D01*
X045716D01*
Y036605D01*
X045716Y036574D01*
X045716Y036574D01*
X04572Y036556D01*
X04572D01*
Y035884D01*
X045877D01*
Y035713D01*
X045797Y035633D01*
X0457D01*
X0457Y035633D01*
X04522D01*
Y03583D01*
X044684D01*
X044678Y035838D01*
X044123Y036393D01*
Y041374D01*
X044111Y041432D01*
X044078Y041482D01*
X043654Y041906D01*
X043673Y041952D01*
X04435D01*
Y04193D01*
X04515D01*
Y042117D01*
X045607D01*
X045891Y041833D01*
Y040086D01*
X04572D01*
Y039414D01*
X045716Y039406D01*
X045716D01*
Y038734D01*
X046364D01*
Y039406D01*
X046368Y039414D01*
X046368D01*
Y040086D01*
X046197D01*
Y041896D01*
X046185Y041955D01*
X046152Y042004D01*
X046085Y042071D01*
X046105Y042117D01*
X04765D01*
Y04193D01*
X04845D01*
Y04263D01*
D02*
G37*
G36*
X032043Y043189D02*
X031937D01*
X031836Y043162D01*
X031745Y043109D01*
X031671Y043035D01*
X031618Y042944D01*
X031591Y042843D01*
Y042737D01*
X031618Y042636D01*
X031671Y042545D01*
X031745Y042471D01*
X031836Y042418D01*
X031937Y042391D01*
X032043D01*
X032144Y042418D01*
X032235Y042471D01*
X032309Y042545D01*
X032362Y042636D01*
X032389Y042737D01*
Y042843D01*
X032362Y042944D01*
X032309Y043035D01*
X032235Y043109D01*
X032144Y043162D01*
X032043Y043189D01*
D02*
G37*
G36*
X031043D02*
X030937D01*
X030836Y043162D01*
X030745Y043109D01*
X030671Y043035D01*
X030618Y042944D01*
X030591Y042843D01*
Y042737D01*
X030618Y042636D01*
X030671Y042545D01*
X030745Y042471D01*
X030836Y042418D01*
X030937Y042391D01*
X031043D01*
X031144Y042418D01*
X031235Y042471D01*
X031309Y042545D01*
X031362Y042636D01*
X031389Y042737D01*
Y042843D01*
X031362Y042944D01*
X031309Y043035D01*
X031235Y043109D01*
X031144Y043162D01*
X031043Y043189D01*
D02*
G37*
G36*
X030043D02*
X029937D01*
X029836Y043162D01*
X029745Y043109D01*
X029671Y043035D01*
X029618Y042944D01*
X029591Y042843D01*
Y042737D01*
X029618Y042636D01*
X029671Y042545D01*
X029745Y042471D01*
X029836Y042418D01*
X029937Y042391D01*
X030043D01*
X030144Y042418D01*
X030235Y042471D01*
X030309Y042545D01*
X030362Y042636D01*
X030389Y042737D01*
Y042843D01*
X030362Y042944D01*
X030309Y043035D01*
X030235Y043109D01*
X030144Y043162D01*
X030043Y043189D01*
D02*
G37*
G36*
X029435Y042715D02*
X029065D01*
Y042345D01*
X029163Y042371D01*
X029266Y042431D01*
X029349Y042514D01*
X029409Y042617D01*
X029435Y042715D01*
D02*
G37*
G36*
X028915D02*
X028545D01*
X028571Y042617D01*
X028631Y042514D01*
X028714Y042431D01*
X028817Y042371D01*
X028915Y042345D01*
Y042715D01*
D02*
G37*
G36*
X050289Y042801D02*
X049624D01*
Y042136D01*
X049765Y042164D01*
X0499Y042219D01*
X050021Y042301D01*
X050124Y042404D01*
X050205Y042525D01*
X050261Y04266D01*
X050289Y042801D01*
D02*
G37*
G36*
X049474D02*
X048809D01*
X048837Y04266D01*
X048893Y042525D01*
X048974Y042404D01*
X049077Y042301D01*
X049198Y042219D01*
X049333Y042164D01*
X049474Y042136D01*
Y042801D01*
D02*
G37*
G36*
X014421D02*
X013756D01*
Y042136D01*
X013897Y042164D01*
X014032Y042219D01*
X014153Y042301D01*
X014256Y042404D01*
X014337Y042525D01*
X014393Y04266D01*
X014421Y042801D01*
D02*
G37*
G36*
X013606D02*
X012941D01*
X012969Y04266D01*
X013025Y042525D01*
X013106Y042404D01*
X013209Y042301D01*
X01333Y042219D01*
X013465Y042164D01*
X013606Y042136D01*
Y042801D01*
D02*
G37*
G36*
X0452Y04088D02*
X044825D01*
Y040555D01*
X0452D01*
Y04088D01*
D02*
G37*
G36*
X044675D02*
X0443D01*
Y040555D01*
X044675D01*
Y04088D01*
D02*
G37*
G36*
X0485Y04088D02*
X048125D01*
Y040555D01*
X0485D01*
Y04088D01*
D02*
G37*
G36*
X047975D02*
X0476D01*
Y040555D01*
X047975D01*
Y04088D01*
D02*
G37*
G36*
X0485Y040405D02*
X048125D01*
Y04008D01*
X0485D01*
Y040405D01*
D02*
G37*
G36*
X047975D02*
X0476D01*
Y04008D01*
X047975D01*
Y040405D01*
D02*
G37*
G36*
X0452Y040405D02*
X044825D01*
Y04008D01*
X0452D01*
Y040405D01*
D02*
G37*
G36*
X044675D02*
X0443D01*
Y04008D01*
X044675D01*
Y040405D01*
D02*
G37*
G36*
X015216Y040858D02*
X015201Y040855D01*
X01419D01*
Y040005D01*
X01539D01*
Y040855D01*
X015231D01*
X015216Y040858D01*
D02*
G37*
G36*
X04717Y040136D02*
X046871D01*
Y039825D01*
X04717D01*
Y040136D01*
D02*
G37*
G36*
X046721D02*
X046422D01*
Y039825D01*
X046721D01*
Y040136D01*
D02*
G37*
G36*
X014965Y039859D02*
X014615D01*
X014504Y039844D01*
X014401Y039801D01*
X014312Y039733D01*
X014244Y039644D01*
X014201Y039541D01*
X014186Y03943D01*
X014201Y039319D01*
X014244Y039216D01*
X014312Y039127D01*
X014401Y039059D01*
X014504Y039016D01*
X014615Y039001D01*
X014965D01*
X015076Y039016D01*
X015179Y039059D01*
X015268Y039127D01*
X015336Y039216D01*
X015379Y039319D01*
X015394Y03943D01*
X015379Y039541D01*
X015336Y039644D01*
X015268Y039733D01*
X015179Y039801D01*
X015076Y039844D01*
X014965Y039859D01*
D02*
G37*
G36*
X019695Y039405D02*
X019105D01*
X019027Y03939D01*
X018962Y039346D01*
X018918Y03928D01*
X018902Y039203D01*
Y039006D01*
X018918Y038928D01*
X018962Y038863D01*
X019027Y038819D01*
X019105Y038804D01*
X019695D01*
X019773Y038819D01*
X019838Y038863D01*
X019882Y038928D01*
X019898Y039006D01*
Y039203D01*
X019882Y03928D01*
X019838Y039346D01*
X019773Y03939D01*
X019695Y039405D01*
D02*
G37*
G36*
X042366Y039105D02*
X041991D01*
Y038715D01*
X042366D01*
Y039105D01*
D02*
G37*
G36*
X041841D02*
X041467D01*
Y038715D01*
X041841D01*
Y039105D01*
D02*
G37*
G36*
X0155Y041549D02*
X015423Y041539D01*
X01535Y041509D01*
X015288Y041462D01*
X015241Y0414D01*
X015211Y041327D01*
X015201Y04125D01*
X015211Y041173D01*
X015241Y0411D01*
X015288Y041038D01*
X015298Y041028D01*
X01536Y040981D01*
X015433Y040951D01*
X01551Y040941D01*
X015587Y040951D01*
X01566Y040981D01*
X015722Y041028D01*
X015747Y041062D01*
X016092D01*
Y03808D01*
X016105Y038012D01*
X016144Y037954D01*
X017322Y036776D01*
Y035002D01*
X017085D01*
Y034922D01*
X017055Y034918D01*
X016982Y034888D01*
X01692Y034841D01*
X016873Y034779D01*
X016843Y034707D01*
X016833Y034629D01*
X016843Y034552D01*
X016873Y034479D01*
X01692Y034417D01*
X016982Y03437D01*
X017055Y03434D01*
X017085Y034336D01*
Y034204D01*
X018242D01*
X018276Y03417D01*
X018338Y034122D01*
X018368Y03411D01*
X01841Y034092D01*
X018488Y034082D01*
X019098D01*
X019105Y034081D01*
X019695D01*
X019741Y03409D01*
X019791Y034053D01*
Y03138D01*
X019564D01*
Y030732D01*
X020192D01*
X020237Y030727D01*
X02024Y030683D01*
Y030677D01*
X020237Y030633D01*
X020192Y030628D01*
X019564D01*
Y030383D01*
X019363D01*
X019353Y030393D01*
Y030894D01*
X019341Y030953D01*
X019308Y031002D01*
X019201Y031109D01*
Y031467D01*
X018647D01*
Y030893D01*
X018985D01*
X019047Y030831D01*
Y03033D01*
X019059Y030271D01*
X019092Y030222D01*
X019192Y030122D01*
X019241Y030089D01*
X0193Y030077D01*
X019564D01*
Y02998D01*
X020236D01*
Y030491D01*
X020286Y030505D01*
X020311Y030461D01*
X020378Y030395D01*
X020392Y030387D01*
Y029684D01*
X020023D01*
Y02982D01*
X019465D01*
Y029684D01*
X01934D01*
X018827Y030197D01*
Y030483D01*
X018273D01*
Y029909D01*
X018539D01*
X018581Y029866D01*
X018562Y02982D01*
X018177D01*
Y029779D01*
X017924D01*
X017903Y0298D01*
Y030487D01*
X017936Y030543D01*
X01796Y030633D01*
Y030727D01*
X017942Y030793D01*
X017974Y030843D01*
X018101D01*
Y031105D01*
X017849D01*
Y031006D01*
X017799Y030978D01*
X017741Y031012D01*
X017651Y031036D01*
X017557D01*
X017467Y031012D01*
X017385Y030965D01*
X017319Y030899D01*
X017272Y030817D01*
X017248Y030727D01*
Y030633D01*
X017272Y030543D01*
X017305Y030487D01*
Y029676D01*
X017315Y029599D01*
X017345Y029526D01*
X017392Y029464D01*
X017588Y029268D01*
X01765Y029221D01*
X017723Y029191D01*
X0178Y029181D01*
X018177D01*
Y02914D01*
X018735D01*
Y029378D01*
X018746Y029403D01*
X018756Y02948D01*
X018746Y029557D01*
X018735Y029582D01*
Y029647D01*
X018782Y029666D01*
X019112Y029336D01*
X019178Y029292D01*
X019256Y029276D01*
X019465D01*
Y02914D01*
X020023D01*
Y029276D01*
X020537D01*
X020616Y029292D01*
X020682Y029336D01*
X02072Y029375D01*
X020744Y02939D01*
X020788Y029457D01*
X020804Y029535D01*
X0208Y029554D01*
Y030387D01*
X020815Y030395D01*
X020881Y030461D01*
X020928Y030543D01*
X020952Y030633D01*
Y030727D01*
X020928Y030817D01*
X020881Y030899D01*
X020815Y030965D01*
X020733Y031012D01*
X020643Y031036D01*
X020549D01*
X020459Y031012D01*
X020378Y030965D01*
X020311Y030899D01*
X020286Y030855D01*
X020236Y030869D01*
Y03138D01*
X020097D01*
Y034822D01*
X020085Y03488D01*
X020052Y03493D01*
X019898Y035084D01*
Y035267D01*
X019882Y035344D01*
X019838Y03541D01*
X019773Y035454D01*
X019695Y035469D01*
X019105D01*
X019027Y035454D01*
X018962Y03541D01*
X018918Y035344D01*
X018902Y035267D01*
Y03507D01*
X018918Y034993D01*
X018962Y034927D01*
X019027Y034883D01*
X019105Y034868D01*
X019681D01*
X019791Y034758D01*
Y03471D01*
X019741Y034673D01*
X019695Y034682D01*
X019105D01*
X019098Y034681D01*
X018665D01*
Y035002D01*
X017678D01*
Y03685D01*
X017678Y03685D01*
X017665Y036918D01*
X017626Y036976D01*
X017626Y036976D01*
X016448Y038154D01*
Y041062D01*
X017206D01*
X01732Y040948D01*
Y040216D01*
X017174D01*
Y039544D01*
X01732D01*
Y039491D01*
X017174D01*
X017174Y038819D01*
X017125Y038816D01*
X017124D01*
Y038505D01*
X017872D01*
Y038816D01*
X017871D01*
X017822Y038819D01*
X017822Y038866D01*
Y039491D01*
X017676D01*
Y039544D01*
X017822D01*
Y040216D01*
X017676D01*
Y041022D01*
X017663Y04109D01*
X017624Y041148D01*
X017624Y041148D01*
X017406Y041366D01*
X017348Y041405D01*
X01728Y041418D01*
X015747D01*
X015722Y041452D01*
X015712Y041462D01*
X01565Y041509D01*
X015577Y041539D01*
X0155Y041549D01*
D02*
G37*
G36*
X017872Y038355D02*
X017573D01*
Y038044D01*
X017872D01*
Y038355D01*
D02*
G37*
G36*
X017423D02*
X017124D01*
Y038044D01*
X017423D01*
Y038355D01*
D02*
G37*
G36*
X018574Y039491D02*
X017926D01*
Y038819D01*
X018097D01*
Y038766D01*
X017926D01*
Y038094D01*
X018574D01*
Y038164D01*
X018913D01*
X018918Y038141D01*
X018962Y038076D01*
X019027Y038032D01*
X019105Y038016D01*
X019695D01*
X019773Y038032D01*
X019838Y038076D01*
X019882Y038141D01*
X019898Y038219D01*
Y038416D01*
X019882Y038493D01*
X019838Y038559D01*
X019773Y038602D01*
X019695Y038618D01*
X019105D01*
X019027Y038602D01*
X018962Y038559D01*
X018918Y038493D01*
X018913Y03847D01*
X018574D01*
Y038766D01*
X018403D01*
Y038819D01*
X018574D01*
Y039491D01*
D02*
G37*
G36*
X042366Y038565D02*
X041916D01*
X041467D01*
Y038175D01*
X041477D01*
Y037895D01*
X041926D01*
X042376D01*
Y038285D01*
X042366D01*
Y038565D01*
D02*
G37*
G36*
X037783Y038122D02*
X037235D01*
Y037851D01*
X037783D01*
Y038122D01*
D02*
G37*
G36*
X037085D02*
X036538D01*
Y037851D01*
X037085D01*
Y038122D01*
D02*
G37*
G36*
X019695Y037831D02*
X019105D01*
X019027Y037815D01*
X018962Y037771D01*
X018918Y037706D01*
X018913Y037683D01*
X018778D01*
X018762Y037698D01*
X018689Y037728D01*
X018611D01*
X018538Y037698D01*
X018482Y037642D01*
X018452Y037569D01*
Y037491D01*
X018482Y037418D01*
X018538Y037362D01*
X018611Y037332D01*
X018689D01*
X018762Y037362D01*
X018778Y037377D01*
X018913D01*
X018918Y037354D01*
X018962Y037289D01*
X019027Y037245D01*
X019105Y037229D01*
X019695D01*
X019773Y037245D01*
X019838Y037289D01*
X019882Y037354D01*
X019898Y037432D01*
Y037628D01*
X019882Y037706D01*
X019838Y037771D01*
X019773Y037815D01*
X019695Y037831D01*
D02*
G37*
G36*
X037783Y037701D02*
X037235D01*
Y037429D01*
X037783D01*
Y037701D01*
D02*
G37*
G36*
X037085D02*
X036538D01*
Y037429D01*
X037085D01*
Y037701D01*
D02*
G37*
G36*
X042376Y037745D02*
X042001D01*
Y037355D01*
X042376D01*
Y037745D01*
D02*
G37*
G36*
X041851D02*
X041477D01*
Y037355D01*
X041851D01*
Y037745D01*
D02*
G37*
G36*
X040969Y039055D02*
X040171D01*
Y038939D01*
X03041D01*
X030333Y038929D01*
X03026Y038899D01*
X030198Y038852D01*
X028918Y037572D01*
X028871Y03751D01*
X028841Y037437D01*
X028831Y03736D01*
Y03463D01*
X028833Y034611D01*
Y034591D01*
X028838Y034572D01*
X028841Y034553D01*
X028848Y034534D01*
X028853Y034515D01*
X028863Y034498D01*
X028871Y03448D01*
X028883Y034465D01*
X028892Y034448D01*
X028906Y034434D01*
X028918Y034418D01*
X028934Y034406D01*
X028948Y034392D01*
X028965Y034383D01*
X02898Y034371D01*
X028998Y034363D01*
X029015Y034353D01*
X029034Y034348D01*
X029053Y034341D01*
X029072Y034338D01*
X029091Y034333D01*
X029111D01*
X02913Y034331D01*
X029149Y034333D01*
X029169D01*
X029188Y034338D01*
X029207Y034341D01*
X029226Y034348D01*
X029245Y034353D01*
X029262Y034363D01*
X02928Y034371D01*
X029295Y034383D01*
X029312Y034392D01*
X029326Y034406D01*
X029342Y034418D01*
X029354Y034434D01*
X029368Y034448D01*
X029377Y034465D01*
X029389Y03448D01*
X029397Y034498D01*
X029407Y034515D01*
X029412Y034534D01*
X029419Y034553D01*
X029422Y034572D01*
X029427Y034591D01*
Y034611D01*
X029429Y03463D01*
Y037236D01*
X030534Y038341D01*
X040171D01*
Y038225D01*
X040181D01*
Y037405D01*
X040296D01*
Y037245D01*
X040209D01*
Y037149D01*
X040036D01*
Y037757D01*
X038064D01*
Y037175D01*
X03716D01*
X037141Y037172D01*
X036588D01*
Y036579D01*
X037141D01*
X03716Y036576D01*
X038064D01*
Y035983D01*
X040036D01*
Y036551D01*
X040209D01*
Y036455D01*
X041031D01*
Y037245D01*
X040894D01*
Y037405D01*
X040979D01*
Y038235D01*
X040969D01*
Y039055D01*
D02*
G37*
G36*
X035035Y037875D02*
X034245D01*
Y037085D01*
X035035D01*
Y037176D01*
X035305D01*
Y03712D01*
X036155D01*
Y03782D01*
X035305D01*
Y037774D01*
X035035D01*
Y037875D01*
D02*
G37*
G36*
X015216Y037558D02*
X015201Y037555D01*
X01424D01*
Y036705D01*
X01544D01*
Y037555D01*
X015231D01*
X015216Y037558D01*
D02*
G37*
G36*
X042586Y036809D02*
X042255D01*
Y036508D01*
X042586D01*
Y036809D01*
D02*
G37*
G36*
X042105D02*
X041774D01*
Y036508D01*
X042105D01*
Y036809D01*
D02*
G37*
G36*
X032543Y037533D02*
X031477D01*
Y036467D01*
X032543D01*
Y037533D01*
D02*
G37*
G36*
X042586Y036358D02*
X042255D01*
Y036057D01*
X042586D01*
Y036358D01*
D02*
G37*
G36*
X042105D02*
X041774D01*
Y036057D01*
X042105D01*
Y036358D01*
D02*
G37*
G36*
X034715Y036421D02*
Y036055D01*
X035081D01*
X035055Y036152D01*
X034996Y036253D01*
X034913Y036336D01*
X034812Y036395D01*
X034715Y036421D01*
D02*
G37*
G36*
X034565D02*
X034468Y036395D01*
X034367Y036336D01*
X034284Y036253D01*
X034225Y036152D01*
X034199Y036055D01*
X034565D01*
Y036421D01*
D02*
G37*
G36*
X019695Y037044D02*
X019105D01*
X019027Y037028D01*
X018962Y036984D01*
X018918Y036919D01*
X018902Y036841D01*
Y036644D01*
X018918Y036567D01*
X018962Y036501D01*
X019027Y036458D01*
X019105Y036442D01*
X019695D01*
X019773Y036458D01*
X019838Y036501D01*
X019882Y036567D01*
X019887Y03659D01*
X020333D01*
X020497Y036426D01*
Y035958D01*
X020451Y035939D01*
X020326Y036064D01*
X020277Y036097D01*
X020218Y036109D01*
X019887D01*
X019882Y036132D01*
X019838Y036197D01*
X019773Y036241D01*
X019695Y036256D01*
X019105D01*
X019027Y036241D01*
X018962Y036197D01*
X018918Y036132D01*
X018902Y036054D01*
Y035857D01*
X018918Y03578D01*
X018962Y035714D01*
X019027Y03567D01*
X019105Y035655D01*
X019695D01*
X019773Y03567D01*
X019838Y035714D01*
X019882Y03578D01*
X019887Y035803D01*
X020155D01*
X020247Y035711D01*
Y033158D01*
X020259Y0331D01*
X020292Y03305D01*
X02072Y032622D01*
X02077Y032589D01*
X020828Y032577D01*
X023937D01*
X024222Y032292D01*
Y03138D01*
X024039D01*
Y030732D01*
X024687D01*
X02469Y030727D01*
Y030633D01*
X024687Y030628D01*
X024039D01*
Y030433D01*
X023913D01*
X023903Y030443D01*
Y030844D01*
X023891Y030903D01*
X023858Y030952D01*
X023701Y031109D01*
Y031467D01*
X023147D01*
Y030893D01*
X023485D01*
X023597Y030781D01*
Y03038D01*
X023609Y030321D01*
X023642Y030272D01*
X023742Y030172D01*
X023791Y030139D01*
X02385Y030127D01*
X024039D01*
Y02998D01*
X024711D01*
Y030448D01*
X024761Y030462D01*
X024761Y030461D01*
X024828Y030395D01*
X024842Y030387D01*
Y029684D01*
X024473D01*
Y02982D01*
X023915D01*
Y029684D01*
X02384D01*
X023327Y030197D01*
Y030483D01*
X022773D01*
Y029909D01*
X023039D01*
X023081Y029866D01*
X023062Y02982D01*
X022627D01*
Y029779D01*
X022424D01*
X022353Y02985D01*
Y030487D01*
X022386Y030543D01*
X02241Y030633D01*
Y030727D01*
X022392Y030793D01*
X022424Y030843D01*
X022601D01*
Y031105D01*
X022349D01*
Y030959D01*
X022299Y030938D01*
X022272Y030965D01*
X022191Y031012D01*
X022101Y031036D01*
X022007D01*
X021917Y031012D01*
X021835Y030965D01*
X021769Y030899D01*
X021722Y030817D01*
X021698Y030727D01*
Y030633D01*
X021722Y030543D01*
X021755Y030487D01*
Y029726D01*
X021765Y029649D01*
X021795Y029576D01*
X021842Y029514D01*
X022088Y029268D01*
X02215Y029221D01*
X02218Y029208D01*
X022223Y029191D01*
X0223Y029181D01*
X022627D01*
Y02914D01*
X023185D01*
Y029378D01*
X023196Y029403D01*
X023206Y02948D01*
X023196Y029557D01*
X023185Y029582D01*
Y029697D01*
X023232Y029716D01*
X023612Y029336D01*
X023678Y029292D01*
X023756Y029276D01*
X023915D01*
Y02914D01*
X024473D01*
Y029276D01*
X024941D01*
X025019Y029292D01*
X025086Y029336D01*
X02519Y02944D01*
X025234Y029507D01*
X02525Y029585D01*
Y030387D01*
X025265Y030395D01*
X025331Y030461D01*
X025378Y030543D01*
X025402Y030633D01*
Y030727D01*
X025378Y030817D01*
X025331Y030899D01*
X025265Y030965D01*
X025183Y031012D01*
X025093Y031036D01*
X024999D01*
X024909Y031012D01*
X024828Y030965D01*
X024761Y030899D01*
X024761Y030898D01*
X024711Y030912D01*
Y03138D01*
X024528D01*
Y032355D01*
X024516Y032414D01*
X024483Y032463D01*
X024185Y032761D01*
X024205Y032807D01*
X028567D01*
X028697Y032677D01*
Y03138D01*
X028514D01*
Y030732D01*
X029137D01*
X02914Y030727D01*
Y030633D01*
X029137Y030628D01*
X028514D01*
Y030433D01*
X028313D01*
X028303Y030443D01*
Y03087D01*
X028291Y030929D01*
X028258Y030978D01*
X028127Y031109D01*
Y031467D01*
X027573D01*
Y030893D01*
X027911D01*
X027997Y030807D01*
Y03038D01*
X028009Y030321D01*
X028042Y030272D01*
X028142Y030172D01*
X028191Y030139D01*
X02825Y030127D01*
X028514D01*
Y02998D01*
X029186D01*
Y030416D01*
X029236Y030437D01*
X029278Y030395D01*
X029292Y030387D01*
Y029684D01*
X028923D01*
Y02982D01*
X028365D01*
Y029684D01*
X028276D01*
X027757Y030203D01*
X027753Y030206D01*
Y030483D01*
X027199D01*
Y029909D01*
X027468D01*
X027489Y029895D01*
X027517Y029866D01*
X027498Y02982D01*
X027077D01*
Y029771D01*
X026933D01*
X026803Y0299D01*
Y030487D01*
X026836Y030543D01*
X02686Y030633D01*
Y030727D01*
X026842Y030793D01*
X026874Y030843D01*
X027027D01*
Y031105D01*
X026775D01*
Y030978D01*
X026729Y030959D01*
X026722Y030965D01*
X026641Y031012D01*
X026551Y031036D01*
X026457D01*
X026367Y031012D01*
X026285Y030965D01*
X026219Y030899D01*
X026172Y030817D01*
X026148Y030727D01*
Y030633D01*
X026172Y030543D01*
X026205Y030487D01*
Y029776D01*
X026215Y029699D01*
X026245Y029626D01*
X026292Y029564D01*
X026597Y02926D01*
X026659Y029212D01*
X026689Y0292D01*
X026731Y029182D01*
X026809Y029172D01*
X027077D01*
Y02914D01*
X027635D01*
Y029378D01*
X027646Y029403D01*
X027656Y02948D01*
X027646Y029557D01*
X027635Y029582D01*
Y029683D01*
X027682Y029702D01*
X028048Y029336D01*
X028114Y029292D01*
X028192Y029276D01*
X028365D01*
Y02914D01*
X028923D01*
Y029276D01*
X0294D01*
X029478Y029292D01*
X029544Y029336D01*
X02964Y029432D01*
X029684Y029498D01*
X0297Y029576D01*
Y030387D01*
X029715Y030395D01*
X029781Y030461D01*
X029828Y030543D01*
X029852Y030633D01*
Y030727D01*
X029828Y030817D01*
X029781Y030899D01*
X029715Y030965D01*
X029633Y031012D01*
X029543Y031036D01*
X029449D01*
X029359Y031012D01*
X029278Y030965D01*
X029236Y030923D01*
X029186Y030944D01*
Y03138D01*
X029003D01*
Y03274D01*
X028991Y032799D01*
X028958Y032848D01*
X028738Y033068D01*
X028689Y033101D01*
X02863Y033113D01*
X021016D01*
X020803Y033326D01*
Y036489D01*
X020791Y036548D01*
X020758Y036597D01*
X020505Y036851D01*
X020455Y036884D01*
X020396Y036896D01*
X019887D01*
X019882Y036919D01*
X019838Y036984D01*
X019773Y037028D01*
X019695Y037044D01*
D02*
G37*
G36*
X040695Y036297D02*
Y035925D01*
X041118D01*
X041113Y035966D01*
X041068Y036075D01*
X040997Y036168D01*
X040904Y036239D01*
X040795Y036284D01*
X040695Y036297D01*
D02*
G37*
G36*
X040545D02*
X040445Y036284D01*
X040336Y036239D01*
X040243Y036168D01*
X040172Y036075D01*
X040127Y035966D01*
X040122Y035925D01*
X040545D01*
Y036297D01*
D02*
G37*
G36*
X04717Y036145D02*
X046871D01*
Y035834D01*
X04717D01*
Y036145D01*
D02*
G37*
G36*
X046721D02*
X046422D01*
Y035834D01*
X046721D01*
Y036145D01*
D02*
G37*
G36*
X015015Y036559D02*
X014665D01*
X014554Y036544D01*
X014451Y036501D01*
X014362Y036433D01*
X014294Y036344D01*
X014251Y036241D01*
X014236Y03613D01*
X014251Y036019D01*
X014294Y035916D01*
X014362Y035827D01*
X014451Y035759D01*
X014554Y035716D01*
X014665Y035701D01*
X015015D01*
X015126Y035716D01*
X015229Y035759D01*
X015318Y035827D01*
X015386Y035916D01*
X015429Y036019D01*
X015444Y03613D01*
X015429Y036241D01*
X015386Y036344D01*
X015318Y036433D01*
X015229Y036501D01*
X015126Y036544D01*
X015015Y036559D01*
D02*
G37*
G36*
X036155Y03652D02*
X035305D01*
Y03582D01*
X035732D01*
X035788Y035764D01*
X03585Y035716D01*
X035922Y035686D01*
X035999Y035676D01*
X03716D01*
X03718Y035679D01*
X037733D01*
Y036272D01*
X03718D01*
X03716Y036275D01*
X036155D01*
Y03652D01*
D02*
G37*
G36*
X025635Y036256D02*
X025045D01*
X024967Y036241D01*
X024902Y036197D01*
X024858Y036132D01*
X024842Y036054D01*
Y035857D01*
X024858Y03578D01*
X024902Y035714D01*
X024967Y03567D01*
X025045Y035655D01*
X025635D01*
X025713Y03567D01*
X025778Y035714D01*
X025822Y03578D01*
X025838Y035857D01*
Y036054D01*
X025822Y036132D01*
X025778Y036197D01*
X025713Y036241D01*
X025635Y036256D01*
D02*
G37*
G36*
X035081Y035905D02*
X034715D01*
Y035539D01*
X034812Y035565D01*
X034913Y035624D01*
X034996Y035707D01*
X035055Y035808D01*
X035081Y035905D01*
D02*
G37*
G36*
X034565D02*
X034199D01*
X034225Y035808D01*
X034284Y035707D01*
X034367Y035624D01*
X034468Y035565D01*
X034565Y035539D01*
Y035905D01*
D02*
G37*
G36*
X041118Y035775D02*
X040695D01*
Y035403D01*
X040795Y035416D01*
X040904Y035461D01*
X040997Y035532D01*
X041068Y035625D01*
X041113Y035734D01*
X041118Y035775D01*
D02*
G37*
G36*
X040545D02*
X040122D01*
X040127Y035734D01*
X040172Y035625D01*
X040243Y035532D01*
X040336Y035461D01*
X040445Y035416D01*
X040545Y035403D01*
Y035775D01*
D02*
G37*
G36*
X026698Y035516D02*
X02605D01*
Y035322D01*
X025827D01*
X025822Y035344D01*
X025778Y03541D01*
X025713Y035454D01*
X025635Y035469D01*
X025045D01*
X024967Y035454D01*
X024902Y03541D01*
X024858Y035344D01*
X024842Y035267D01*
Y03507D01*
X024858Y034993D01*
X024902Y034927D01*
X024967Y034883D01*
X025045Y034868D01*
X025635D01*
X025713Y034883D01*
X025778Y034927D01*
X025822Y034993D01*
X025827Y035016D01*
X02605D01*
Y034844D01*
X026698D01*
Y035516D01*
D02*
G37*
G36*
X0275Y035566D02*
X027201D01*
Y035255D01*
X0275D01*
Y035566D01*
D02*
G37*
G36*
X027051D02*
X026752D01*
Y035255D01*
X027051D01*
Y035566D01*
D02*
G37*
G36*
X0275Y035105D02*
X027201D01*
Y034794D01*
X0275D01*
Y035105D01*
D02*
G37*
G36*
X027051D02*
X026752D01*
Y034794D01*
X027051D01*
Y035105D01*
D02*
G37*
G36*
X038935Y034938D02*
Y034515D01*
X039358D01*
X039326Y034633D01*
X03926Y034747D01*
X039167Y03484D01*
X039053Y034906D01*
X038935Y034938D01*
D02*
G37*
G36*
X038785D02*
X038667Y034906D01*
X038553Y03484D01*
X03846Y034747D01*
X038394Y034633D01*
X038362Y034515D01*
X038785D01*
Y034938D01*
D02*
G37*
G36*
X025635Y034733D02*
X025415D01*
Y034456D01*
X025889D01*
Y03448D01*
X025869Y034577D01*
X025814Y034659D01*
X025732Y034714D01*
X025635Y034733D01*
D02*
G37*
G36*
X025265D02*
X025045D01*
X024948Y034714D01*
X024866Y034659D01*
X024811Y034577D01*
X024791Y03448D01*
Y034456D01*
X025265D01*
Y034733D01*
D02*
G37*
G36*
X037675Y03494D02*
Y034379D01*
X038029D01*
Y03452D01*
X038015Y034632D01*
X037972Y034735D01*
X037904Y034824D01*
X037815Y034892D01*
X037711Y034935D01*
X037675Y03494D01*
D02*
G37*
G36*
X037525D02*
X037489Y034935D01*
X037385Y034892D01*
X037296Y034824D01*
X037228Y034735D01*
X037185Y034632D01*
X037171Y03452D01*
Y034379D01*
X037525D01*
Y03494D01*
D02*
G37*
G36*
X025889Y034306D02*
X025415D01*
Y03403D01*
X025635D01*
X025732Y034049D01*
X025814Y034104D01*
X025869Y034186D01*
X025889Y034283D01*
Y034306D01*
D02*
G37*
G36*
X025265D02*
X024791D01*
Y034283D01*
X024811Y034186D01*
X024866Y034104D01*
X024948Y034049D01*
X025045Y03403D01*
X025265D01*
Y034306D01*
D02*
G37*
G36*
X039358Y034365D02*
X038935D01*
Y033942D01*
X039053Y033974D01*
X039167Y03404D01*
X03926Y034133D01*
X039326Y034247D01*
X039358Y034365D01*
D02*
G37*
G36*
X038785D02*
X038362D01*
X038394Y034247D01*
X03846Y034133D01*
X038553Y03404D01*
X038667Y033974D01*
X038785Y033942D01*
Y034365D01*
D02*
G37*
G36*
X04527Y03408D02*
X044895D01*
Y033755D01*
X04527D01*
Y03408D01*
D02*
G37*
G36*
X044745D02*
X04437D01*
Y033755D01*
X044745D01*
Y03408D01*
D02*
G37*
G36*
X04857Y03408D02*
X048195D01*
Y033755D01*
X04857D01*
Y03408D01*
D02*
G37*
G36*
X048045D02*
X04767D01*
Y033755D01*
X048045D01*
Y03408D01*
D02*
G37*
G36*
X03208Y035533D02*
X03194D01*
X031804Y035497D01*
X031683Y035427D01*
X031583Y035327D01*
X031513Y035206D01*
X031477Y03507D01*
Y03493D01*
X031513Y034794D01*
X031583Y034673D01*
X031683Y034573D01*
X031804Y034503D01*
X03194Y034467D01*
X032025D01*
X03247Y034022D01*
X03247Y034022D01*
X032552Y033959D01*
X032648Y033919D01*
X032752Y033905D01*
X032752Y033905D01*
X033269D01*
X033272Y033898D01*
X033332Y03382D01*
X033411Y033759D01*
X033502Y033721D01*
X0336Y033709D01*
X033698Y033721D01*
X033789Y033759D01*
X033868Y03382D01*
X033928Y033898D01*
X033966Y033989D01*
X033979Y034087D01*
Y034186D01*
X033985Y034201D01*
X033999Y034304D01*
X033985Y034407D01*
X033979Y034422D01*
Y03452D01*
X033966Y034619D01*
X033928Y03471D01*
X033868Y034788D01*
X033789Y034849D01*
X033698Y034886D01*
X0336Y034899D01*
X033502Y034886D01*
X033411Y034849D01*
X033332Y034788D01*
X033272Y03471D01*
X033269Y034703D01*
X032917D01*
X032541Y035079D01*
X032507Y035206D01*
X032437Y035327D01*
X032337Y035427D01*
X032216Y035497D01*
X03208Y035533D01*
D02*
G37*
G36*
X037525Y034229D02*
X037171D01*
Y034087D01*
X037185Y033976D01*
X037228Y033873D01*
X037296Y033784D01*
X037385Y033716D01*
X037489Y033673D01*
X037525Y033668D01*
Y034229D01*
D02*
G37*
G36*
X038029D02*
X037675D01*
Y033668D01*
X037711Y033673D01*
X037815Y033716D01*
X037904Y033784D01*
X037972Y033873D01*
X038015Y033976D01*
X038029Y034087D01*
Y034229D01*
D02*
G37*
G36*
X015216Y034358D02*
X015201Y034355D01*
X01429D01*
Y033505D01*
X01549D01*
Y034355D01*
X015231D01*
X015216Y034358D01*
D02*
G37*
G36*
X018715Y033706D02*
X018325D01*
Y033332D01*
X018715D01*
Y033706D01*
D02*
G37*
G36*
X017425D02*
X017035D01*
Y033332D01*
X017425D01*
Y033706D01*
D02*
G37*
G36*
X04857Y033605D02*
X048195D01*
Y03328D01*
X04857D01*
Y033605D01*
D02*
G37*
G36*
X048045D02*
X04767D01*
Y03328D01*
X048045D01*
Y033605D01*
D02*
G37*
G36*
X04527Y033605D02*
X044895D01*
Y03328D01*
X04527D01*
Y033605D01*
D02*
G37*
G36*
X044745D02*
X04437D01*
Y03328D01*
X044745D01*
Y033605D01*
D02*
G37*
G36*
X018715Y033182D02*
X018325D01*
Y032808D01*
X018715D01*
Y033182D01*
D02*
G37*
G36*
X018175Y033706D02*
X017575D01*
Y033257D01*
Y032808D01*
X018175D01*
Y033257D01*
Y033706D01*
D02*
G37*
G36*
X017425Y033182D02*
X017035D01*
Y032808D01*
X017425D01*
Y033182D01*
D02*
G37*
G36*
X015065Y033359D02*
X014715D01*
X014604Y033344D01*
X014501Y033301D01*
X014412Y033233D01*
X014344Y033144D01*
X014301Y033041D01*
X014286Y03293D01*
X014301Y032819D01*
X014344Y032716D01*
X014412Y032627D01*
X014501Y032559D01*
X014604Y032516D01*
X014715Y032501D01*
X015065D01*
X015176Y032516D01*
X015279Y032559D01*
X015368Y032627D01*
X015436Y032716D01*
X015479Y032819D01*
X015494Y03293D01*
X015479Y033041D01*
X015436Y033144D01*
X015368Y033233D01*
X015279Y033301D01*
X015176Y033344D01*
X015065Y033359D01*
D02*
G37*
G36*
X04727Y032604D02*
Y03246D01*
X047414D01*
X047388Y032522D01*
X047332Y032578D01*
X04727Y032604D01*
D02*
G37*
G36*
X04717D02*
X047108Y032578D01*
X047052Y032522D01*
X047026Y03246D01*
X04717D01*
Y032604D01*
D02*
G37*
G36*
X0454D02*
Y03246D01*
X045544D01*
X045518Y032522D01*
X045462Y032578D01*
X0454Y032604D01*
D02*
G37*
G36*
X0453D02*
X045238Y032578D01*
X045182Y032522D01*
X045156Y03246D01*
X0453D01*
Y032604D01*
D02*
G37*
G36*
X04643Y032594D02*
Y03245D01*
X046574D01*
X046548Y032512D01*
X046492Y032568D01*
X04643Y032594D01*
D02*
G37*
G36*
X04633D02*
X046268Y032568D01*
X046212Y032512D01*
X046186Y03245D01*
X04633D01*
Y032594D01*
D02*
G37*
G36*
X04587D02*
Y03245D01*
X046014D01*
X045988Y032512D01*
X045932Y032568D01*
X04587Y032594D01*
D02*
G37*
G36*
X04577D02*
X045708Y032568D01*
X045652Y032512D01*
X045626Y03245D01*
X04577D01*
Y032594D01*
D02*
G37*
G36*
X04811Y032574D02*
Y03243D01*
X048254D01*
X048228Y032492D01*
X048172Y032548D01*
X04811Y032574D01*
D02*
G37*
G36*
X04801D02*
X047948Y032548D01*
X047892Y032492D01*
X047866Y03243D01*
X04801D01*
Y032574D01*
D02*
G37*
G36*
X047414Y03236D02*
X04727D01*
Y032216D01*
X047332Y032242D01*
X047388Y032298D01*
X047414Y03236D01*
D02*
G37*
G36*
X04717D02*
X047026D01*
X047052Y032298D01*
X047108Y032242D01*
X04717Y032216D01*
Y03236D01*
D02*
G37*
G36*
X045544D02*
X0454D01*
Y032216D01*
X045462Y032242D01*
X045518Y032298D01*
X045544Y03236D01*
D02*
G37*
G36*
X0453D02*
X045156D01*
X045182Y032298D01*
X045238Y032242D01*
X0453Y032216D01*
Y03236D01*
D02*
G37*
G36*
X046574Y03235D02*
X04643D01*
Y032206D01*
X046492Y032232D01*
X046548Y032288D01*
X046574Y03235D01*
D02*
G37*
G36*
X04633D02*
X046186D01*
X046212Y032288D01*
X046268Y032232D01*
X04633Y032206D01*
Y03235D01*
D02*
G37*
G36*
X046014D02*
X04587D01*
Y032206D01*
X045932Y032232D01*
X045988Y032288D01*
X046014Y03235D01*
D02*
G37*
G36*
X04577D02*
X045626D01*
X045652Y032288D01*
X045708Y032232D01*
X04577Y032206D01*
Y03235D01*
D02*
G37*
G36*
X048254Y03233D02*
X04811D01*
Y032186D01*
X048172Y032212D01*
X048228Y032268D01*
X048254Y03233D01*
D02*
G37*
G36*
X04801D02*
X047866D01*
X047892Y032268D01*
X047948Y032212D01*
X04801Y032186D01*
Y03233D01*
D02*
G37*
G36*
X018503Y031517D02*
X018251D01*
Y031255D01*
X018503D01*
Y031517D01*
D02*
G37*
G36*
X027429D02*
X027177D01*
Y031255D01*
X027429D01*
Y031517D01*
D02*
G37*
G36*
X023003D02*
X022751D01*
Y031255D01*
X023003D01*
Y031517D01*
D02*
G37*
G36*
X022601D02*
X022349D01*
Y031255D01*
X022601D01*
Y031517D01*
D02*
G37*
G36*
X018101D02*
X017849D01*
Y031255D01*
X018101D01*
Y031517D01*
D02*
G37*
G36*
X027027D02*
X026775D01*
Y031255D01*
X027027D01*
Y031517D01*
D02*
G37*
G36*
X04717Y039675D02*
X046422D01*
Y039364D01*
X046468D01*
Y038734D01*
X0469D01*
X047057Y038577D01*
Y037246D01*
X046468D01*
Y036606D01*
X046422D01*
Y036295D01*
X04717D01*
Y036606D01*
X047138D01*
X047131Y036638D01*
X047169Y03667D01*
X047173Y036672D01*
X047249D01*
X047322Y036702D01*
X047338Y036717D01*
X048317D01*
X048667Y036367D01*
Y031473D01*
X048437Y031243D01*
X047116D01*
Y031426D01*
X046468D01*
Y030826D01*
X046422D01*
Y030515D01*
X04717D01*
Y030826D01*
X047116D01*
Y030937D01*
X0485D01*
X048559Y030949D01*
X048608Y030982D01*
X048928Y031302D01*
X048961Y031351D01*
X048973Y03141D01*
Y03643D01*
X048961Y036489D01*
X048928Y036538D01*
X048488Y036978D01*
X048439Y037011D01*
X04838Y037023D01*
X047363D01*
Y03864D01*
X047351Y038699D01*
X047318Y038748D01*
X047116Y03895D01*
Y039364D01*
X04717D01*
Y039675D01*
D02*
G37*
G36*
X027429Y031105D02*
X027177D01*
Y030843D01*
X027429D01*
Y031105D01*
D02*
G37*
G36*
X023003D02*
X022751D01*
Y030843D01*
X023003D01*
Y031105D01*
D02*
G37*
G36*
X018503D02*
X018251D01*
Y030843D01*
X018503D01*
Y031105D01*
D02*
G37*
G36*
X015216Y031025D02*
X015201Y031022D01*
X014292D01*
Y030172D01*
X015492D01*
Y031022D01*
X015231D01*
X015216Y031025D01*
D02*
G37*
G36*
X04717Y030365D02*
X046871D01*
Y030054D01*
X04717D01*
Y030365D01*
D02*
G37*
G36*
X046721D02*
X046422D01*
Y030054D01*
X046721D01*
Y030365D01*
D02*
G37*
G36*
X015067Y030025D02*
X014717D01*
X014606Y030011D01*
X014502Y029968D01*
X014413Y0299D01*
X014345Y029811D01*
X014303Y029708D01*
X014288Y029597D01*
X014303Y029486D01*
X014345Y029382D01*
X014413Y029294D01*
X014502Y029225D01*
X014606Y029183D01*
X014717Y029168D01*
X015067D01*
X015178Y029183D01*
X015281Y029225D01*
X01537Y029294D01*
X015438Y029382D01*
X015481Y029486D01*
X015495Y029597D01*
X015481Y029708D01*
X015438Y029811D01*
X01537Y0299D01*
X015281Y029968D01*
X015178Y030011D01*
X015067Y030025D01*
D02*
G37*
G36*
X04542Y02832D02*
X045045D01*
Y027995D01*
X04542D01*
Y02832D01*
D02*
G37*
G36*
X044895D02*
X04452D01*
Y027995D01*
X044895D01*
Y02832D01*
D02*
G37*
G36*
X04872Y02832D02*
X048345D01*
Y027995D01*
X04872D01*
Y02832D01*
D02*
G37*
G36*
X048195D02*
X04782D01*
Y027995D01*
X048195D01*
Y02832D01*
D02*
G37*
G36*
X04872Y027845D02*
X048345D01*
Y02752D01*
X04872D01*
Y027845D01*
D02*
G37*
G36*
X048195D02*
X04782D01*
Y02752D01*
X048195D01*
Y027845D01*
D02*
G37*
G36*
X04542Y027845D02*
X045045D01*
Y02752D01*
X04542D01*
Y027845D01*
D02*
G37*
G36*
X044895D02*
X04452D01*
Y02752D01*
X044895D01*
Y027845D01*
D02*
G37*
%LPD*%
D14*
X020952Y03296D02*
X02863D01*
X02065Y033262D02*
X020952Y03296D01*
X02863D02*
X02885Y03274D01*
X02065Y033262D02*
Y036489D01*
X0204Y033158D02*
Y035774D01*
X020828Y03273D02*
X024D01*
X0204Y033158D02*
X020828Y03273D01*
X0194Y036743D02*
X020396D01*
X02065Y036489D01*
X020218Y035956D02*
X0204Y035774D01*
X0194Y035956D02*
X020218D01*
X03199Y04165D02*
X04323D01*
X02915D02*
X03198D01*
X031985Y041645D01*
X04345Y041893D02*
X04397Y041374D01*
X028614Y041488D02*
X02902Y041893D01*
X031985Y041645D02*
X03199Y04165D01*
X02902Y041893D02*
X04345D01*
X02839Y041626D02*
X028869Y042105D01*
X02839Y03868D02*
Y041626D01*
X028869Y042105D02*
X044575D01*
X028614Y038534D02*
Y041488D01*
X04366Y03308D02*
X04497Y03177D01*
X04366Y03308D02*
Y04122D01*
X04323Y04165D02*
X04366Y04122D01*
X04397Y03633D02*
Y041374D01*
X02884Y04134D02*
X02915Y04165D01*
X04492Y02972D02*
X04592D01*
X044575Y042105D02*
X04475Y04228D01*
X027611Y03753D02*
X028614Y038534D01*
X028027Y038317D02*
X02839Y03868D01*
X027553Y036743D02*
X02884Y03803D01*
Y04134D01*
X02534Y03753D02*
X027611D01*
X02534Y038317D02*
X028027D01*
X02534Y036743D02*
X027553D01*
X04497Y02972D02*
Y03177D01*
X026831Y039891D02*
X02736Y04042D01*
Y04242D01*
X02699Y04279D02*
X02736Y04242D01*
X02761Y04241D02*
X02799Y04279D01*
X02761Y0398D02*
Y04241D01*
X026914Y039104D02*
X02761Y0398D01*
X02534Y039891D02*
X026831D01*
X02534Y039104D02*
X026914D01*
X02885Y031056D02*
Y03274D01*
X04567Y04227D02*
X04804D01*
X04805Y04228D01*
X04567Y04227D02*
X046044Y041896D01*
X04603Y03565D02*
Y036206D01*
X04586Y03548D02*
X04603Y03565D01*
X04592Y02972D02*
X04603Y02983D01*
X04592Y02972D02*
X04592Y02972D01*
X04827D01*
X04604Y03109D02*
X046044Y031086D01*
Y03044D02*
Y031086D01*
X04603Y02983D02*
Y030426D01*
X046044Y03044D01*
X04397Y03633D02*
X04457Y03573D01*
X04477Y03548D02*
X04482D01*
X04457Y03568D02*
X04477Y03548D01*
X04457Y03568D02*
Y03573D01*
X0485Y03109D02*
X04882Y03141D01*
X04838Y03687D02*
X04882Y03643D01*
Y03141D02*
Y03643D01*
X04721Y03687D02*
X04838D01*
X046792Y03109D02*
X0485D01*
X04721Y03687D02*
Y03864D01*
X046792Y039058D02*
Y03907D01*
Y039058D02*
X04721Y03864D01*
X046832Y03687D02*
X04721D01*
X046792Y03691D02*
X046832Y03687D01*
X04476Y04227D02*
X04567D01*
X04482Y03548D02*
X0457D01*
X04586Y03548D02*
X04812D01*
X0457D02*
X04586D01*
X0457Y03548D02*
X0457Y03548D01*
X046044Y03622D02*
Y036906D01*
X04604Y03691D02*
X046044Y036906D01*
X04603Y036206D02*
X046044Y03622D01*
X04475Y04228D02*
X04476Y04227D01*
X046044Y03975D02*
Y041896D01*
X04604Y03907D02*
Y039746D01*
X046044Y03975D01*
X042188Y034204D02*
X0422D01*
X01865Y03753D02*
X0194D01*
X01479Y03943D02*
X015D01*
X018261Y039891D02*
X0194D01*
X026363Y035169D02*
X026374Y03518D01*
X02534Y035169D02*
X026363D01*
X024375Y031056D02*
Y032355D01*
X024Y03273D02*
X024375Y032355D01*
X023424Y03117D02*
Y03118D01*
Y03117D02*
X02375Y030844D01*
Y03038D02*
Y030844D01*
X0199Y031056D02*
X019944Y0311D01*
Y034822D01*
X0194Y035169D02*
X019597D01*
X019944Y034822D01*
X018363Y038317D02*
X0194D01*
X01825Y03843D02*
X018363Y038317D01*
X01825Y03843D02*
Y039155D01*
Y03988D02*
X018261Y039891D01*
X014941Y030597D02*
X015216Y030872D01*
X014892Y030597D02*
X014941D01*
Y03393D02*
X015216Y034205D01*
X01489Y03393D02*
X014941D01*
Y03713D02*
X015216Y037405D01*
X01484Y03713D02*
X014941D01*
Y04043D02*
X015216Y040705D01*
X01479Y04043D02*
X014941D01*
X028826Y03028D02*
X02885Y030304D01*
X02815Y03038D02*
X02825Y03028D01*
X028826D01*
X02785Y03117D02*
Y03118D01*
Y03117D02*
X02815Y03087D01*
Y03038D02*
Y03087D01*
X02385Y03028D02*
X024351D01*
X02375Y03038D02*
X02385Y03028D01*
X024351D02*
X024375Y030304D01*
X0192Y03033D02*
X0193Y03023D01*
X0192Y03033D02*
Y030894D01*
X0193Y03023D02*
X019826D01*
X0199Y030304D01*
X018924Y03117D02*
X0192Y030894D01*
X018924Y03117D02*
Y03118D01*
D19*
X037232Y02832D02*
X03735D01*
X037413Y028383D02*
Y029011D01*
X037471Y02907D02*
X037921D01*
X03735Y02832D02*
X037413Y028383D01*
Y029011D02*
X037471Y02907D01*
X0408Y02839D02*
Y02899D01*
X0408Y02899D02*
X0408Y02899D01*
X0382Y028183D02*
X040593D01*
X0408Y02839D01*
X0418Y02899D02*
Y02951D01*
X04174Y02957D02*
X0418Y02951D01*
X03928Y02957D02*
X04174D01*
X039264D02*
X03928D01*
X037921Y02907D02*
X038764D01*
X039264Y02957D01*
X03734Y02682D02*
X038183D01*
X037232D02*
X03734D01*
X038183D02*
X0382Y026837D01*
X038184Y028183D02*
X0382D01*
X037232Y02782D02*
X037234Y027822D01*
X037823D01*
X038184Y028183D01*
D20*
X02534Y039891D02*
D03*
Y039104D02*
D03*
Y038317D02*
D03*
Y03753D02*
D03*
Y036743D02*
D03*
Y035956D02*
D03*
Y035169D02*
D03*
Y034381D02*
D03*
X0194D02*
D03*
Y035169D02*
D03*
Y035956D02*
D03*
Y036743D02*
D03*
Y03753D02*
D03*
Y038317D02*
D03*
Y039104D02*
D03*
Y039891D02*
D03*
D21*
X0382Y028183D02*
D03*
Y026837D02*
D03*
X03406Y027027D02*
D03*
Y028373D02*
D03*
X03993Y033823D02*
D03*
Y032477D02*
D03*
X01825Y034603D02*
D03*
Y033257D02*
D03*
X0175Y034603D02*
D03*
Y033257D02*
D03*
D22*
X036739Y02907D02*
D03*
X037921D02*
D03*
D23*
X035008Y02832D02*
D03*
Y02782D02*
D03*
Y02732D02*
D03*
X037232Y02832D02*
D03*
Y02782D02*
D03*
Y02732D02*
D03*
Y02682D02*
D03*
X035008D02*
D03*
D24*
X03395Y02571D02*
D03*
Y02471D02*
D03*
X03643D02*
D03*
Y02571D02*
D03*
D25*
X04805Y04048D02*
D03*
Y04228D02*
D03*
X04475Y04048D02*
D03*
Y04228D02*
D03*
X04497Y02972D02*
D03*
Y02792D02*
D03*
X04827Y02972D02*
D03*
Y02792D02*
D03*
X04482Y03548D02*
D03*
Y03368D02*
D03*
X04812Y03548D02*
D03*
Y03368D02*
D03*
D26*
X046796Y03044D02*
D03*
X046044D02*
D03*
X04604Y03109D02*
D03*
X046792D02*
D03*
X046044Y03622D02*
D03*
X046796D02*
D03*
X04604Y03691D02*
D03*
X046792D02*
D03*
X04604Y03907D02*
D03*
X046792D02*
D03*
X046044Y03975D02*
D03*
X046796D02*
D03*
X040684Y03373D02*
D03*
X041436D02*
D03*
X041436Y03442D02*
D03*
X040684D02*
D03*
X027126Y03518D02*
D03*
X026374D02*
D03*
X017498Y03843D02*
D03*
X01825D02*
D03*
Y039155D02*
D03*
X017498D02*
D03*
Y03988D02*
D03*
X01825D02*
D03*
D27*
X0332Y028136D02*
D03*
Y027384D02*
D03*
X0422Y032764D02*
D03*
Y033516D02*
D03*
Y034956D02*
D03*
Y034204D02*
D03*
X024375Y031056D02*
D03*
Y030304D02*
D03*
X02885D02*
D03*
Y031056D02*
D03*
X0199D02*
D03*
Y030304D02*
D03*
D28*
X03864Y0315D02*
D03*
X03994D02*
D03*
D29*
X0408Y031549D02*
D03*
Y02899D02*
D03*
X0418Y031549D02*
D03*
Y02899D02*
D03*
D30*
X040618Y032356D02*
D03*
X041602Y03273D02*
D03*
X040618Y033104D02*
D03*
D31*
X04218Y035547D02*
D03*
Y036433D02*
D03*
D32*
X041916Y03864D02*
D03*
X04057D02*
D03*
X04058Y03782D02*
D03*
X041926D02*
D03*
D33*
X03716Y037776D02*
D03*
Y036876D02*
D03*
Y035976D02*
D03*
D34*
X03905Y03687D02*
D03*
D35*
X03573Y03747D02*
D03*
Y03617D02*
D03*
D36*
X027356Y02948D02*
D03*
X028644D02*
D03*
X022906D02*
D03*
X024194D02*
D03*
X03501Y02937D02*
D03*
X033723D02*
D03*
X019744Y02948D02*
D03*
X018456D02*
D03*
D37*
X018924Y03118D02*
D03*
X01855Y030196D02*
D03*
X018176Y03118D02*
D03*
X022676D02*
D03*
X02305Y030196D02*
D03*
X023424Y03118D02*
D03*
X02785D02*
D03*
X027476Y030196D02*
D03*
X027102Y03118D02*
D03*
D72*
X01728Y04124D02*
X017498Y041022D01*
X0175Y034603D02*
Y03685D01*
X041486Y033394D02*
Y03368D01*
X041436Y03373D02*
X041486Y03368D01*
X041602Y03273D02*
Y033278D01*
X041486Y033394D02*
X041602Y033278D01*
X01627Y04124D02*
X01728D01*
X01551D02*
X01627D01*
Y03808D02*
Y04124D01*
Y03808D02*
X0175Y03685D01*
X041436Y03442D02*
X041972D01*
X042188Y034204D01*
X017498Y03988D02*
Y041022D01*
Y039155D02*
Y03988D01*
D73*
X017132Y034629D02*
X017474D01*
X0175Y034603D02*
X01825D01*
X017474Y034629D02*
X0175Y034603D01*
X018488Y034381D02*
X0194D01*
X018266Y034603D02*
X018488Y034381D01*
X03734Y02682D02*
Y027232D01*
Y02607D02*
Y02682D01*
X02913Y03736D02*
X03041Y03864D01*
X02913Y03463D02*
Y03736D01*
X03041Y03864D02*
X04057D01*
X039887Y031171D02*
Y031447D01*
X03994Y0315D01*
X03406Y027027D02*
X03408Y027007D01*
X034263D01*
X034044Y027027D02*
X03406D01*
X033715Y027356D02*
X034044Y027027D01*
X040595Y036875D02*
Y038615D01*
X034645Y037475D02*
X035725D01*
X03462Y03746D02*
X03464Y03748D01*
X03469Y03753D01*
X03464Y03748D02*
X034645Y037475D01*
X035725D02*
X03573Y03747D01*
X039286Y03057D02*
X039887Y031171D01*
X03928Y03057D02*
X039286D01*
X038693Y031553D02*
Y03219D01*
X03886Y032357D01*
Y03244D01*
X03864Y0315D02*
X038693Y031553D01*
X040595Y036875D02*
X04062Y03685D01*
X04057Y03864D02*
X040595Y038615D01*
X03905Y03687D02*
X03907Y03685D01*
X04062D01*
X0376Y0308D02*
X037679Y030879D01*
Y031469D01*
X038609D02*
X03864Y0315D01*
X037679Y031469D02*
X038609D01*
X0366Y029249D02*
Y0308D01*
Y029249D02*
X036739Y029109D01*
Y02907D02*
Y029109D01*
X033228Y027356D02*
X033715D01*
X0332Y027384D02*
X033228Y027356D01*
X034044Y028373D02*
X03406D01*
X0332Y028136D02*
X033228Y028164D01*
X033835D01*
X034044Y028373D01*
X033723Y029344D02*
X033804Y029263D01*
X033829D01*
X03406Y028373D02*
Y029033D01*
X033723Y029344D02*
Y02937D01*
X033829Y029263D02*
X03406Y029033D01*
X035009Y026821D02*
Y029369D01*
X0346Y030611D02*
Y0308D01*
Y030611D02*
X03501Y030201D01*
Y02937D02*
Y030201D01*
X035008Y02682D02*
X035009Y026821D01*
Y029369D02*
X03501Y02937D01*
X03643Y02471D02*
X0372D01*
X03734Y02457D01*
X03643Y02571D02*
X036927D01*
X037287Y02607D01*
X03734D01*
X033153Y02627D02*
X033713Y02571D01*
X03395D01*
X03307Y02627D02*
X033153D01*
Y02427D02*
X033593Y02471D01*
X03395D01*
X03307Y02427D02*
X033153D01*
X040656Y033769D02*
X040684Y033742D01*
Y03373D02*
Y033742D01*
X035805Y03617D02*
X035999Y035976D01*
X04218Y035547D02*
X04219Y035537D01*
Y034966D02*
Y035537D01*
Y034966D02*
X0422Y034956D01*
X03573Y03617D02*
X035805D01*
X035999Y035976D02*
X03716D01*
X040684Y03373D02*
X040684Y03373D01*
X040684Y033742D02*
Y03442D01*
X03993Y033823D02*
X039984Y033769D01*
X040656D01*
X03716Y036876D02*
X03884D01*
X040618Y032356D02*
X0408Y032174D01*
X0418Y031549D02*
X041969D01*
X0408D02*
Y032174D01*
X040599Y032374D02*
X040618Y032356D01*
X0422Y03178D02*
Y032764D01*
Y033516D02*
Y034204D01*
X040032Y032374D02*
X040599D01*
X040656Y033143D02*
Y033769D01*
X040618Y033104D02*
X040656Y033143D01*
X041969Y031549D02*
X0422Y03178D01*
X02999Y04279D02*
X030029Y042829D01*
X017604Y029676D02*
Y03068D01*
X0178Y02948D02*
X018456D01*
X017604Y029676D02*
X0178Y02948D01*
X0155Y04125D02*
X01551Y04124D01*
X02933Y02203D02*
X029494Y022194D01*
X02151Y02203D02*
Y022705D01*
X02205Y024676D02*
X022054Y02468D01*
X02542Y02203D02*
Y022424D01*
X017602Y024678D02*
X017604Y02468D01*
X0176Y02203D02*
X017602Y022032D01*
X026809Y029471D02*
X027348D01*
X027356Y02948D01*
X026504Y029776D02*
X026809Y029471D01*
X026504Y029776D02*
Y03068D01*
X0223Y02948D02*
X022906D01*
X022054Y029726D02*
Y03068D01*
Y029726D02*
X0223Y02948D01*
D74*
X032752Y034304D02*
X0336D01*
X03201Y035D02*
X032056D01*
X033542Y034362D02*
X0336Y034304D01*
X032056Y035D02*
X032752Y034304D01*
D75*
X020596Y029539D02*
X0206Y029535D01*
X029496Y029576D02*
Y03068D01*
X0294Y02948D02*
X029496Y029576D01*
X028644Y02948D02*
X0294D01*
X025046Y029585D02*
Y03068D01*
X024941Y02948D02*
X025046Y029585D01*
X024194Y02948D02*
X024941D01*
X020596Y029539D02*
Y03068D01*
X019744Y02948D02*
X020537D01*
X020596Y029539D01*
X027613Y030059D02*
X028192Y02948D01*
X028644D01*
X027476Y030186D02*
Y030196D01*
X027603Y030059D02*
X027613D01*
X027476Y030186D02*
X027603Y030059D01*
X02305Y030186D02*
Y030196D01*
Y030186D02*
X023756Y02948D01*
X024194D01*
X019256D02*
X019744D01*
X01855Y030186D02*
Y030196D01*
Y030186D02*
X019256Y02948D01*
X01855Y03017D02*
Y03018D01*
D76*
X03464Y03598D02*
D03*
X03734Y02607D02*
D03*
D77*
X03464Y03748D02*
D03*
X03734Y02457D02*
D03*
D78*
X0176Y02203D02*
D03*
X02151D02*
D03*
X02542D02*
D03*
X02933D02*
D03*
X03307D02*
D03*
X03715D02*
D03*
D79*
X03307Y02627D02*
D03*
Y02427D02*
D03*
X03886Y03244D02*
D03*
Y03444D02*
D03*
D80*
X03201Y035D02*
D03*
D81*
Y037D02*
D03*
D82*
X01484Y03613D02*
D03*
X01479Y03943D02*
D03*
X01489Y03293D02*
D03*
X014892Y029597D02*
D03*
D83*
X01484Y03713D02*
D03*
X01479Y04043D02*
D03*
X01489Y03393D02*
D03*
X014892Y030597D02*
D03*
D84*
X04062Y03685D02*
D03*
X03928Y02957D02*
D03*
D85*
X04062Y03585D02*
D03*
X03928Y03057D02*
D03*
D86*
X0336Y034304D02*
D03*
X0376D02*
D03*
X0336Y0308D02*
D03*
X0346D02*
D03*
X0366D02*
D03*
D87*
X0376D02*
D03*
D88*
X02699Y04279D02*
D03*
X02799D02*
D03*
X02899D02*
D03*
X02999D02*
D03*
X03199D02*
D03*
X03099D02*
D03*
D89*
X029494Y02568D02*
D03*
X026504Y02468D02*
D03*
X020594Y02568D02*
D03*
X017604Y02468D02*
D03*
X022054D02*
D03*
X025044Y02568D02*
D03*
D90*
X026504Y03068D02*
D03*
X029496D02*
D03*
X017604Y03068D02*
D03*
X020596D02*
D03*
X025046D02*
D03*
X022054D02*
D03*
D91*
X049549Y021204D02*
D03*
X049549Y042876D02*
D03*
X013681Y021214D02*
D03*
Y042876D02*
D03*
X04806Y03238D02*
D03*
X04722Y03241D02*
D03*
X04638Y0324D02*
D03*
X04582D02*
D03*
X04535Y03241D02*
D03*
X041486Y033435D02*
D03*
X017132Y034629D02*
D03*
X031985Y041645D02*
D03*
X034263Y027007D02*
D03*
X04721Y03687D02*
D03*
X04149Y0346D02*
D03*
X0155Y04125D02*
D03*
X01865Y03753D02*
D03*
X01874Y03989D02*
D03*
D92*
X02913Y03463D02*
D03*
M02*
