G04*
G04 #@! TF.GenerationSoftware,Altium Limited,Altium Designer,21.2.1 (34)*
G04*
G04 Layer_Color=255*
%FSTAX24Y24*%
%MOIN*%
G70*
G04*
G04 #@! TF.SameCoordinates,9334BE2B-5F1B-4A57-B983-AC11F37A1BB9*
G04*
G04*
G04 #@! TF.FilePolarity,Positive*
G04*
G01*
G75*
G04:AMPARAMS|DCode=20|XSize=39.4mil|YSize=78.7mil|CornerRadius=9.8mil|HoleSize=0mil|Usage=FLASHONLY|Rotation=90.000|XOffset=0mil|YOffset=0mil|HoleType=Round|Shape=RoundedRectangle|*
%AMROUNDEDRECTD20*
21,1,0.0394,0.0591,0,0,90.0*
21,1,0.0197,0.0787,0,0,90.0*
1,1,0.0197,0.0295,0.0098*
1,1,0.0197,0.0295,-0.0098*
1,1,0.0197,-0.0295,-0.0098*
1,1,0.0197,-0.0295,0.0098*
%
%ADD20ROUNDEDRECTD20*%
%ADD21R,0.0630X0.0598*%
%ADD22R,0.0394X0.0472*%
%ADD23O,0.0591X0.0236*%
%ADD24R,0.0472X0.0394*%
%ADD25R,0.0600X0.0500*%
%ADD26R,0.0449X0.0472*%
%ADD27R,0.0472X0.0449*%
%ADD28R,0.0500X0.0650*%
%ADD29R,0.0315X0.0394*%
%ADD30R,0.0374X0.0354*%
%ADD31R,0.0512X0.0453*%
%ADD32R,0.0598X0.0630*%
%ADD33R,0.0945X0.0394*%
%ADD34R,0.1772X0.1575*%
%ADD35R,0.0650X0.0500*%
%ADD36R,0.0358X0.0480*%
%ADD37R,0.0354X0.0374*%
%ADD76C,0.0591*%
%ADD77R,0.0591X0.0591*%
%ADD78O,0.1575X0.2362*%
%ADD79C,0.0700*%
%ADD80C,0.0866*%
%ADD81R,0.0866X0.0866*%
%ADD82O,0.1000X0.0650*%
%ADD83R,0.1000X0.0650*%
%ADD84R,0.0622X0.0591*%
%ADD85O,0.0709X0.0591*%
%ADD86O,0.0551X0.0984*%
G04:AMPARAMS|DCode=87|XSize=98.4mil|YSize=55.1mil|CornerRadius=13.8mil|HoleSize=0mil|Usage=FLASHONLY|Rotation=90.000|XOffset=0mil|YOffset=0mil|HoleType=Round|Shape=RoundedRectangle|*
%AMROUNDEDRECTD87*
21,1,0.0984,0.0276,0,0,90.0*
21,1,0.0709,0.0551,0,0,90.0*
1,1,0.0276,0.0138,0.0354*
1,1,0.0276,0.0138,-0.0354*
1,1,0.0276,-0.0138,-0.0354*
1,1,0.0276,-0.0138,0.0354*
%
%ADD87ROUNDEDRECTD87*%
%ADD88C,0.0598*%
%ADD89O,0.0709X0.0551*%
%ADD90C,0.0512*%
%ADD91C,0.0197*%
D20*
X02534Y039891D02*
D03*
Y039104D02*
D03*
Y038317D02*
D03*
Y03753D02*
D03*
Y036743D02*
D03*
Y035956D02*
D03*
Y035169D02*
D03*
Y034381D02*
D03*
X0194D02*
D03*
Y035169D02*
D03*
Y035956D02*
D03*
Y036743D02*
D03*
Y03753D02*
D03*
Y038317D02*
D03*
Y039104D02*
D03*
Y039891D02*
D03*
D21*
X0382Y028183D02*
D03*
Y026837D02*
D03*
X03406Y027027D02*
D03*
Y028373D02*
D03*
X03993Y033823D02*
D03*
Y032477D02*
D03*
X01825Y034603D02*
D03*
Y033257D02*
D03*
X0175Y034603D02*
D03*
Y033257D02*
D03*
D22*
X036739Y02907D02*
D03*
X037921D02*
D03*
D23*
X035008Y02832D02*
D03*
Y02782D02*
D03*
Y02732D02*
D03*
X037232Y02832D02*
D03*
Y02782D02*
D03*
Y02732D02*
D03*
Y02682D02*
D03*
X035008D02*
D03*
D24*
X03395Y02571D02*
D03*
Y02471D02*
D03*
X03643D02*
D03*
Y02571D02*
D03*
D25*
X04805Y04048D02*
D03*
Y04228D02*
D03*
X04475Y04048D02*
D03*
Y04228D02*
D03*
X04497Y02972D02*
D03*
Y02792D02*
D03*
X04827Y02972D02*
D03*
Y02792D02*
D03*
X04482Y03548D02*
D03*
Y03368D02*
D03*
X04812Y03548D02*
D03*
Y03368D02*
D03*
D26*
X046796Y03044D02*
D03*
X046044D02*
D03*
X04604Y03109D02*
D03*
X046792D02*
D03*
X046044Y03622D02*
D03*
X046796D02*
D03*
X04604Y03691D02*
D03*
X046792D02*
D03*
X04604Y03907D02*
D03*
X046792D02*
D03*
X046044Y03975D02*
D03*
X046796D02*
D03*
X040684Y03373D02*
D03*
X041436D02*
D03*
X041436Y03442D02*
D03*
X040684D02*
D03*
X027126Y03518D02*
D03*
X026374D02*
D03*
X017498Y03843D02*
D03*
X01825D02*
D03*
Y039155D02*
D03*
X017498D02*
D03*
Y03988D02*
D03*
X01825D02*
D03*
D27*
X0332Y028136D02*
D03*
Y027384D02*
D03*
X0422Y032764D02*
D03*
Y033516D02*
D03*
Y034956D02*
D03*
Y034204D02*
D03*
X024375Y031056D02*
D03*
Y030304D02*
D03*
X02885D02*
D03*
Y031056D02*
D03*
X0199D02*
D03*
Y030304D02*
D03*
D28*
X03864Y0315D02*
D03*
X03994D02*
D03*
D29*
X0408Y031549D02*
D03*
Y02899D02*
D03*
X0418Y031549D02*
D03*
Y02899D02*
D03*
D30*
X040618Y032356D02*
D03*
X041602Y03273D02*
D03*
X040618Y033104D02*
D03*
D31*
X04218Y035547D02*
D03*
Y036433D02*
D03*
D32*
X041916Y03864D02*
D03*
X04057D02*
D03*
X04058Y03782D02*
D03*
X041926D02*
D03*
D33*
X03716Y037776D02*
D03*
Y036876D02*
D03*
Y035976D02*
D03*
D34*
X03905Y03687D02*
D03*
D35*
X03573Y03747D02*
D03*
Y03617D02*
D03*
D36*
X027356Y02948D02*
D03*
X028644D02*
D03*
X022906D02*
D03*
X024194D02*
D03*
X03501Y02937D02*
D03*
X033723D02*
D03*
X019744Y02948D02*
D03*
X018456D02*
D03*
D37*
X018924Y03118D02*
D03*
X01855Y030196D02*
D03*
X018176Y03118D02*
D03*
X022676D02*
D03*
X02305Y030196D02*
D03*
X023424Y03118D02*
D03*
X02785D02*
D03*
X027476Y030196D02*
D03*
X027102Y03118D02*
D03*
D76*
X03464Y03598D02*
D03*
X03734Y02607D02*
D03*
D77*
X03464Y03748D02*
D03*
X03734Y02457D02*
D03*
D78*
X0176Y02203D02*
D03*
X02151D02*
D03*
X02542D02*
D03*
X02933D02*
D03*
X03307D02*
D03*
X03715D02*
D03*
D79*
X03307Y02627D02*
D03*
Y02427D02*
D03*
X03886Y03244D02*
D03*
Y03444D02*
D03*
D80*
X03201Y035D02*
D03*
D81*
Y037D02*
D03*
D82*
X01484Y03613D02*
D03*
X01479Y03943D02*
D03*
X01489Y03293D02*
D03*
X014892Y029597D02*
D03*
D83*
X01484Y03713D02*
D03*
X01479Y04043D02*
D03*
X01489Y03393D02*
D03*
X014892Y030597D02*
D03*
D84*
X04062Y03685D02*
D03*
X03928Y02957D02*
D03*
D85*
X04062Y03585D02*
D03*
X03928Y03057D02*
D03*
D86*
X0336Y034304D02*
D03*
X0376D02*
D03*
X0336Y0308D02*
D03*
X0346D02*
D03*
X0366D02*
D03*
D87*
X0376D02*
D03*
D88*
X02699Y04279D02*
D03*
X02799D02*
D03*
X02899D02*
D03*
X02999D02*
D03*
X03199D02*
D03*
X03099D02*
D03*
D89*
X029494Y02568D02*
D03*
X026504Y02468D02*
D03*
X020594Y02568D02*
D03*
X017604Y02468D02*
D03*
X022054D02*
D03*
X025044Y02568D02*
D03*
D90*
X026504Y03068D02*
D03*
X029496D02*
D03*
X017604Y03068D02*
D03*
X020596D02*
D03*
X025046D02*
D03*
X022054D02*
D03*
D91*
X049549Y021204D02*
D03*
X049549Y042876D02*
D03*
X013681Y021214D02*
D03*
Y042876D02*
D03*
M02*
